<?xml version="1.0" encoding="utf-8"?>
<!-- Generator: Avocode 2.6.0 - http://avocode.com -->
<svg height="15" width="12" xmlns:xlink="http://www.w3.org/1999/xlink" xmlns="http://www.w3.org/2000/svg" viewBox="0 0 12 15">
    <path fill="#000" fill-opacity=".2" fill-rule="evenodd" d="M 6 15 C 0.26 15 0 12.99 0 12.99 C 0 11.06 0.9 9.29 2.43 8.15 C 3.3 9 4.6 9.49 6 9.49 C 7.4 9.49 8.7 9 9.57 8.15 C 11.1 9.29 12 11.06 12 12.96 C 12 12.98 11.75 15 6 15 Z M 6 7.52 C 4.01 7.52 2.41 5.23 2.41 3.34 C 2.41 1.5 4.02 0 6 0 C 7.98 0 9.59 1.5 9.59 3.34 C 9.59 5.23 7.99 7.52 6 7.52 Z" />
</svg>